<?xml version="1.0" encoding="UTF-8"?>
<svg id="Layer_1" data-name="Layer 1" xmlns="http://www.w3.org/2000/svg" viewBox="0 0 9.5 9.29">
  <defs>
    <style>
      .cls-1 {
        fill: #6d6c4b;
      }

      .cls-2 {
        fill: #cccccb;
      }

      .cls-3 {
        fill: #fff;
      }

      .cls-4 {
        fill: #a6bf84;
      }
    </style>
  </defs>
  <polygon class="cls-1" points="5.64 .1 4.03 .1 2.5 .66 1.26 1.7 .45 3.1 .17 4.7 .45 6.29 1.26 7.69 2.5 8.73 4.03 9.29 5.64 9.29 7.17 8.73 8.41 7.69 9.21 6.29 9.5 4.7 9.21 3.1 8.41 1.7 7.17 .66 5.64 .1"/>
  <polygon class="cls-4" points="5.47 0 3.85 0 2.33 .55 1.09 1.59 .28 3 0 4.59 .28 6.18 1.09 7.59 2.33 8.63 3.85 9.18 5.47 9.18 6.99 8.63 8.23 7.59 9.04 6.18 9.32 4.59 9.04 3 8.23 1.59 6.99 .55 5.47 0"/>
  <g>
    <line class="cls-1" x1="8.42" y1="5.45" x2="5.77" y2="8.1"/>
    <path class="cls-1" d="M8.44,5.48c-.57.75-1.09,1.57-1.75,2.23-.17.11-.76.52-.95.37.15-.7.58-1.14,1.14-1.51.49-.39.99-.77,1.51-1.14l.05.05h0Z"/>
  </g>
  <g>
    <line class="cls-1" x1="3.76" y1="1.61" x2="1.11" y2="4.26"/>
    <path class="cls-1" d="M3.78,1.64c-.57.75-1.09,1.57-1.75,2.23-.17.11-.76.52-.95.37.15-.7.58-1.14,1.14-1.51.49-.39.99-.77,1.51-1.14l.05.05h0Z"/>
  </g>
  <g>
    <line class="cls-1" x1="6.48" y1=".6" x2="3.83" y2="3.24"/>
    <path class="cls-1" d="M6.5.62c-.57.75-1.09,1.57-1.75,2.23-.17.11-.76.52-.95.37.15-.7.58-1.14,1.14-1.51.49-.39.99-.77,1.51-1.14l.05.05h0Z"/>
  </g>
  <g>
    <line class="cls-2" x1="8.1" y1="5.35" x2="5.45" y2="8"/>
    <path class="cls-3" d="M8.13,5.38c-.57.75-1.09,1.57-1.75,2.23-.17.11-.76.52-.95.37.15-.7.58-1.14,1.14-1.51.49-.39.99-.77,1.51-1.14l.05.05h0Z"/>
  </g>
  <g>
    <line class="cls-2" x1="3.44" y1="1.51" x2=".79" y2="4.16"/>
    <path class="cls-3" d="M3.46,1.54c-.57.75-1.09,1.57-1.75,2.23-.17.11-.76.52-.95.37.15-.7.58-1.14,1.14-1.51.49-.39.99-.77,1.51-1.14,0,0,.05.05.05.05h0Z"/>
  </g>
  <g>
    <line class="cls-2" x1="6.16" y1=".5" x2="3.51" y2="3.14"/>
    <path class="cls-3" d="M6.19.52c-.57.75-1.09,1.57-1.75,2.23-.17.11-.76.52-.95.37.15-.7.58-1.14,1.14-1.51.49-.39.99-.77,1.51-1.14,0,0,.05.05.05.05h0Z"/>
  </g>
</svg>