<?xml version="1.0" encoding="UTF-8"?>
<svg id="Layer_1" data-name="Layer 1" xmlns="http://www.w3.org/2000/svg" viewBox="0 0 80.62 80.62">
  <defs>
    <style>
      .cls-1 {
        fill: #fff;
      }
    </style>
  </defs>
  <path class="cls-1" d="M80.37,80.37c-.26-.01-80.01.26-80.25.25C0,80.56.1.51,0,.38,0,.37,0,0,0,0h.37c.29.04,79.99.1,80.25.13-.04,20.07-.13,60.19-.25,80.25h0ZM80.37,80.37c.07.09-.59-81.08,0-79.75,0,0-80,.13-80,.13l.37-.37c-.02-.06.18,81.07-.37,79.75,0,0,80,.25,80,.25h0Z"/>
</svg>