<?xml version="1.0" encoding="UTF-8"?>
<svg id="Layer_2" data-name="Layer 2" xmlns="http://www.w3.org/2000/svg" viewBox="0 0 96.01 97.09">
  <defs>
    <style>
      .cls-1 {
        fill: #fff;
      }
    </style>
  </defs>
  <path class="cls-1" d="M55.21.92c10.32-.22,30.23-.58,40.55-.71,0,0,.02.81.02.81.1,5.71.32,14.48.2,20.12-.07,4.85-.29,10.22-.54,15.09-.12,1.68-.2,3.35-.36,5.03h-.2c-.77-9.91-1.04-20.24-.89-30.19,0,0,.19-10.06.19-10.06,0,0,.8.8.8.8-9.91-.12-29.86-.48-39.77-.7,0,0,0-.2,0-.2h0Z"/>
  <path class="cls-1" d="M.93,41.26C.7,30.82.34,10.68.21.24c0,0,.82-.02.82-.02C6.68.13,15.34-.08,20.92.03c4.8.07,10.1.29,14.92.54,1.66.12,3.32.2,4.97.35v.2c-8.15.65-16.69.9-24.87.94-3.17,0-11.65-.17-14.92-.23,0,0,.8-.8.8-.8-.12,10.02-.49,30.21-.7,40.23,0,0-.2,0-.2,0h0Z"/>
  <path class="cls-1" d="M40.8,96.17c-10.32.22-30.23.58-40.55.71,0,0-.02-.81-.02-.81-.1-5.71-.32-14.48-.2-20.12.07-4.85.29-10.22.54-15.09.12-1.68.2-3.35.36-5.03,0,0,.2,0,.2,0,.77,9.91,1.04,20.24.89,30.19,0,0-.19,10.06-.19,10.06l-.8-.8c9.91.12,29.86.48,39.77.7,0,0,0,.2,0,.2h0Z"/>
  <path class="cls-1" d="M95.09,55.83c.22,10.44.59,30.58.72,41.02,0,0-.82.02-.82.02-5.65.1-14.31.31-19.89.19-4.8-.07-10.1-.29-14.92-.54-1.66-.12-3.32-.2-4.97-.35v-.2c8.15-.65,16.69-.9,24.87-.94,3.17,0,11.65.17,14.92.23,0,0-.8.8-.8.8.12-10.02.49-30.21.7-40.23,0,0,.2,0,.2,0h0Z"/>
</svg>